<?xml version="1.0" encoding="UTF-8" standalone="no"?>
<svg
   width="24"
   height="24"
   viewBox="0 0 24 24"
   fill="none"
   stroke="#cccccc"
   stroke-width="2"
   stroke-linecap="round"
   stroke-linejoin="round"
   class="icon icon-tabler icons-tabler-outline icon-tabler-sort-ascending-letters"
   version="1.1"
   id="svg5"
   sodipodi:docname="sort-descending-calendar.svg"
   inkscape:version="1.4.2 (ebf0e940d0, 2025-05-08)"
   xmlns:inkscape="http://www.inkscape.org/namespaces/inkscape"
   xmlns:sodipodi="http://sodipodi.sourceforge.net/DTD/sodipodi-0.dtd"
   xmlns="http://www.w3.org/2000/svg"
   xmlns:svg="http://www.w3.org/2000/svg">
  <defs
     id="defs5" />
  <sodipodi:namedview
     id="namedview5"
     pagecolor="#cccccc"
     bordercolor="#cccccc"
     borderopacity="1.0"
     inkscape:showpageshadow="2"
     inkscape:pageopacity="0.0"
     inkscape:pagecheckerboard="0"
     inkscape:deskcolor="#cccccc"
     showgrid="true"
     inkscape:zoom="23.747003"
     inkscape:cx="11.727796"
     inkscape:cy="11.327745"
     inkscape:window-width="1920"
     inkscape:window-height="1008"
     inkscape:window-x="0"
     inkscape:window-y="25"
     inkscape:window-maximized="1"
     inkscape:current-layer="svg5">
    <inkscape:grid
       id="grid5"
       units="px"
       originx="0"
       originy="0"
       spacingx="1"
       spacingy="1"
       empcolor="#cccccc"
       empopacity="0.25098039"
       color="#cccccc"
       opacity="0.078431373"
       empspacing="5"
       enabled="true"
       visible="true" />
  </sodipodi:namedview>
  <path
     stroke="none"
     d="M0 0h24v24H0z"
     fill="none"
     id="path1" />
  <path
     d="M 4,9 7,6 10,9"
     id="path4" />
  <path
     d="M 7,18 V 6"
     id="path5" />
  <path
     d="m 13.99994,14.500039 a 0.50000332,0.50000332 0 0 1 0.500002,0.500003 v 2.000014 a 0.50000366,0.50000366 0 0 1 -1.000007,0 v -2.000014 a 0.50000332,0.50000332 0 0 1 0.500005,-0.500003"
     id="path2"
     style="stroke-width:1.00001" />
  <path
     d="m 15.999952,14.500039 a 0.50000332,0.50000332 0 0 1 0.500003,0.500003 v 2.000014 a 0.50000333,0.50000333 0 0 1 -1.000005,0 v -2.000014 a 0.50000332,0.50000332 0 0 1 0.500002,-0.500003"
     id="path3"
     style="stroke-width:1.00001" />
  <path
     d="m 17.999965,14.500039 a 0.50000332,0.50000332 0 0 1 0.500005,0.500003 v 2.000014 a 0.500004,0.500004 0 0 1 -1.000008,0 v -2.000014 a 0.50000332,0.50000332 0 0 1 0.500003,-0.500003"
     id="path4-6"
     style="stroke-width:1.00001" />
  <path
     d="m 17.999965,9.500005 a 0.50000332,0.50000332 0 0 1 0.496503,0.441504 l 0.0035,0.0585 v 0.500003 h 0.500003 a 1.5000099,1.5000099 0 0 1 1.49751,1.41201 l 0.0025,0.088 v 6.00004 a 1.5000099,1.5000099 0 0 1 -1.41201,1.497509 l -0.08799,0.0025 h -5.999965 a 1.5000099,1.5000099 0 0 1 -1.497511,-1.411969 l -0.0025,-0.088 v -6.00008 a 1.5000099,1.5000099 0 0 1 1.411989,-1.49751 l 0.088,-0.0025 h 0.499946 v -0.499963 a 0.50000332,0.50000332 0 0 1 0.996507,-0.0585 l 0.0035,0.0585 v 0.500003 h 3.00002 v -0.500003 a 0.50000332,0.50000332 0 0 1 0.499988,-0.500004 m 1.50001,3.500024 H 12.49995 v 4.812532 c 0,0.352502 0.193,0.643005 0.441503,0.683004 l 0.05851,0.0045 h 6.000039 c 0.256501,0 0.468002,-0.265001 0.496503,-0.607503 l 0.0035,-0.08 z"
     id="path5-7"
     style="stroke-width:1.00001" />
</svg>
